<mxfile host="65bd71144e">
    <diagram id="Kr5P0Mr6esHxfsdBxRG9" name="Page-2">
        <mxGraphModel dx="1401" dy="1911" grid="1" gridSize="10" guides="1" tooltips="1" connect="1" arrows="1" fold="1" page="1" pageScale="1" pageWidth="827" pageHeight="1169" math="0" shadow="0">
            <root>
                <mxCell id="0"/>
                <mxCell id="1" parent="0"/>
                <mxCell id="3pNXc5t7e8jnaY595f8Y-1" value="怪物的生成器" style="rounded=1;whiteSpace=wrap;html=1;" parent="1" vertex="1">
                    <mxGeometry x="860" y="-490" width="120" height="60" as="geometry"/>
                </mxCell>
                <mxCell id="3pNXc5t7e8jnaY595f8Y-3" value="角色" style="rounded=1;whiteSpace=wrap;html=1;" parent="1" vertex="1">
                    <mxGeometry x="340" y="-510" width="120" height="60" as="geometry"/>
                </mxCell>
                <mxCell id="3pNXc5t7e8jnaY595f8Y-5" value="控制器" style="rounded=1;whiteSpace=wrap;html=1;" parent="1" vertex="1">
                    <mxGeometry x="610" y="-500" width="120" height="60" as="geometry"/>
                </mxCell>
                <mxCell id="3pNXc5t7e8jnaY595f8Y-6" value="相机" style="rounded=1;whiteSpace=wrap;html=1;" parent="1" vertex="1">
                    <mxGeometry x="610" y="-620" width="120" height="60" as="geometry"/>
                </mxCell>
                <mxCell id="3pNXc5t7e8jnaY595f8Y-7" value="差异化" style="text;html=1;align=center;verticalAlign=middle;resizable=0;points=[];autosize=1;strokeColor=none;fillColor=none;" parent="1" vertex="1">
                    <mxGeometry x="310" y="-450" width="60" height="30" as="geometry"/>
                </mxCell>
                <mxCell id="3pNXc5t7e8jnaY595f8Y-8" value="头，生体，手" style="text;html=1;align=center;verticalAlign=middle;resizable=0;points=[];autosize=1;strokeColor=none;fillColor=none;" parent="1" vertex="1">
                    <mxGeometry x="370" y="-430" width="100" height="30" as="geometry"/>
                </mxCell>
                <mxCell id="3pNXc5t7e8jnaY595f8Y-9" value="手装饰，身装饰，头装饰，武器" style="text;html=1;align=center;verticalAlign=middle;resizable=0;points=[];autosize=1;strokeColor=none;fillColor=none;" parent="1" vertex="1">
                    <mxGeometry x="325" y="-400" width="190" height="30" as="geometry"/>
                </mxCell>
                <mxCell id="3pNXc5t7e8jnaY595f8Y-10" value="武器" style="rounded=1;whiteSpace=wrap;html=1;" parent="1" vertex="1">
                    <mxGeometry x="100" y="-520" width="120" height="60" as="geometry"/>
                </mxCell>
                <mxCell id="3pNXc5t7e8jnaY595f8Y-11" value="角色可以是怪，也可以是玩家，看是玩家操控，还是ai控制" style="text;html=1;align=center;verticalAlign=middle;resizable=0;points=[];autosize=1;strokeColor=none;fillColor=none;" parent="1" vertex="1">
                    <mxGeometry x="244" y="-575" width="330" height="30" as="geometry"/>
                </mxCell>
                <mxCell id="3pNXc5t7e8jnaY595f8Y-12" value="假的大世界" style="rounded=1;whiteSpace=wrap;html=1;" parent="1" vertex="1">
                    <mxGeometry x="1120" y="-700" width="120" height="60" as="geometry"/>
                </mxCell>
                <mxCell id="3pNXc5t7e8jnaY595f8Y-13" value="流关卡" style="rounded=1;whiteSpace=wrap;html=1;" parent="1" vertex="1">
                    <mxGeometry x="1120" y="-605" width="120" height="60" as="geometry"/>
                </mxCell>
                <mxCell id="3pNXc5t7e8jnaY595f8Y-14" value="地图" style="rounded=1;whiteSpace=wrap;html=1;" parent="1" vertex="1">
                    <mxGeometry x="1280" y="-700" width="120" height="60" as="geometry"/>
                </mxCell>
                <mxCell id="3pNXc5t7e8jnaY595f8Y-15" value="刷新" style="text;html=1;align=center;verticalAlign=middle;resizable=0;points=[];autosize=1;strokeColor=none;fillColor=none;" parent="1" vertex="1">
                    <mxGeometry x="980" y="-475" width="50" height="30" as="geometry"/>
                </mxCell>
                <mxCell id="3pNXc5t7e8jnaY595f8Y-16" value="探索" style="rounded=1;whiteSpace=wrap;html=1;" parent="1" vertex="1">
                    <mxGeometry x="960" y="-605" width="120" height="60" as="geometry"/>
                </mxCell>
                <mxCell id="3pNXc5t7e8jnaY595f8Y-17" value="区域解锁" style="text;html=1;align=center;verticalAlign=middle;resizable=0;points=[];autosize=1;strokeColor=none;fillColor=none;" parent="1" vertex="1">
                    <mxGeometry x="1350" y="-740" width="70" height="30" as="geometry"/>
                </mxCell>
                <mxCell id="3pNXc5t7e8jnaY595f8Y-19" value="战斗" style="rounded=1;whiteSpace=wrap;html=1;" parent="1" vertex="1">
                    <mxGeometry x="790" y="-605" width="120" height="60" as="geometry"/>
                </mxCell>
                <mxCell id="3pNXc5t7e8jnaY595f8Y-20" value="解密战斗" style="rounded=1;whiteSpace=wrap;html=1;" parent="1" vertex="1">
                    <mxGeometry x="860" y="-390" width="120" height="60" as="geometry"/>
                </mxCell>
                <mxCell id="3pNXc5t7e8jnaY595f8Y-21" value="道具" style="rounded=1;whiteSpace=wrap;html=1;" parent="1" vertex="1">
                    <mxGeometry x="860" y="-290" width="120" height="60" as="geometry"/>
                </mxCell>
                <mxCell id="3pNXc5t7e8jnaY595f8Y-22" value="双星物语" style="text;html=1;align=center;verticalAlign=middle;resizable=0;points=[];autosize=1;strokeColor=none;fillColor=none;" parent="1" vertex="1">
                    <mxGeometry x="850" y="-820" width="70" height="30" as="geometry"/>
                </mxCell>
                <mxCell id="3pNXc5t7e8jnaY595f8Y-23" value="开门" style="text;html=1;align=center;verticalAlign=middle;resizable=0;points=[];autosize=1;strokeColor=none;fillColor=none;" parent="1" vertex="1">
                    <mxGeometry x="1245" y="-605" width="50" height="30" as="geometry"/>
                </mxCell>
                <mxCell id="3pNXc5t7e8jnaY595f8Y-24" value="梯子" style="text;html=1;align=center;verticalAlign=middle;resizable=0;points=[];autosize=1;strokeColor=none;fillColor=none;" parent="1" vertex="1">
                    <mxGeometry x="1245" y="-575" width="50" height="30" as="geometry"/>
                </mxCell>
                <mxCell id="3pNXc5t7e8jnaY595f8Y-25" value="楼梯" style="text;html=1;align=center;verticalAlign=middle;resizable=0;points=[];autosize=1;strokeColor=none;fillColor=none;" parent="1" vertex="1">
                    <mxGeometry x="1240" y="-545" width="50" height="30" as="geometry"/>
                </mxCell>
                <mxCell id="3pNXc5t7e8jnaY595f8Y-26" value="简单一点，不考虑玩家主动跳" style="text;html=1;align=center;verticalAlign=middle;resizable=0;points=[];autosize=1;strokeColor=none;fillColor=none;" parent="1" vertex="1">
                    <mxGeometry x="810" y="-790" width="180" height="30" as="geometry"/>
                </mxCell>
                <mxCell id="3pNXc5t7e8jnaY595f8Y-27" value="本地数据" style="rounded=1;whiteSpace=wrap;html=1;" parent="1" vertex="1">
                    <mxGeometry x="1280" y="-390" width="120" height="60" as="geometry"/>
                </mxCell>
                <mxCell id="3pNXc5t7e8jnaY595f8Y-28" value="要特别注意，考虑独立" style="text;html=1;align=center;verticalAlign=middle;resizable=0;points=[];autosize=1;strokeColor=none;fillColor=none;" parent="1" vertex="1">
                    <mxGeometry x="1270" y="-310" width="140" height="30" as="geometry"/>
                </mxCell>
                <mxCell id="3pNXc5t7e8jnaY595f8Y-29" value="先抄" style="text;html=1;align=center;verticalAlign=middle;resizable=0;points=[];autosize=1;strokeColor=none;fillColor=none;" parent="1" vertex="1">
                    <mxGeometry x="825" y="-765" width="50" height="30" as="geometry"/>
                </mxCell>
                <mxCell id="3pNXc5t7e8jnaY595f8Y-30" value="怪" style="rounded=1;whiteSpace=wrap;html=1;" parent="1" vertex="1">
                    <mxGeometry x="410" y="-320" width="120" height="60" as="geometry"/>
                </mxCell>
                <mxCell id="2" value="加载管理" style="rounded=1;whiteSpace=wrap;html=1;" vertex="1" parent="1">
                    <mxGeometry x="1140" y="-170" width="120" height="60" as="geometry"/>
                </mxCell>
                <mxCell id="3" value="表格管理" style="rounded=1;whiteSpace=wrap;html=1;" vertex="1" parent="1">
                    <mxGeometry x="1290" y="-220" width="120" height="60" as="geometry"/>
                </mxCell>
            </root>
        </mxGraphModel>
    </diagram>
</mxfile>